<?xml version="1.0" standalone="no"?>
<!DOCTYPE svg PUBLIC "-//W3C//DTD SVG 20010904//EN"
 "http://www.w3.org/TR/2001/REC-SVG-20010904/DTD/svg10.dtd">
<svg version="1.0" xmlns="http://www.w3.org/2000/svg"
 width="512.000000pt" height="512.000000pt" viewBox="0 0 512.000000 512.000000"
 preserveAspectRatio="xMidYMid meet">

<g transform="translate(0.000000,512.000000) scale(0.100000,-0.100000)"
fill="#8cc9f0" stroke="none">
<path d="M590 4299 c-32 -13 -77 -56 -98 -94 -16 -27 -17 -138 -20 -1291 l-2
-1261 -236 -282 -236 -283 6 -40 c14 -86 76 -170 159 -215 30 -17 154 -18
2397 -18 2243 0 2367 1 2397 18 83 45 145 129 159 215 l6 40 -236 283 -236
283 0 1227 c0 855 -3 1244 -11 1279 -13 59 -57 116 -106 136 -27 12 -365 14
-1975 13 -1263 0 -1952 -4 -1968 -10z m3717 -185 c15 -11 38 -40 51 -64 l22
-44 0 -1022 0 -1021 -23 -44 c-16 -31 -36 -51 -67 -66 l-44 -23 -1687 0 -1686
0 -43 23 c-30 16 -51 37 -67 67 l-23 43 0 1019 c0 1091 -1 1056 48 1112 42 47
-32 45 1784 43 1705 -2 1707 -2 1735 -23z m-1038 -2936 l69 -83 -389 -3 c-214
-1 -564 -1 -778 0 l-389 3 69 83 70 82 639 0 639 0 70 -82z m-316 -187 c32
-13 41 -39 22 -67 l-15 -24 -400 0 -400 0 -15 24 c-18 27 -11 54 19 66 29 12
759 12 789 1z"/>
</g>
</svg>
